<?xml version="1.0" encoding="UTF-8"?>
<svg width="150px" height="54px" viewBox="0 0 150 54" version="1.1" xmlns="http://www.w3.org/2000/svg" xmlns:xlink="http://www.w3.org/1999/xlink">
    <!-- Generator: Sketch 54.1 (76490) - https://sketchapp.com -->
    <title>Logo</title>
    <desc>Created with Sketch.</desc>
    <defs>
        <polygon id="path-1" points="0.268709023 0.123309278 110.969371 0.123309278 110.969371 53.7216495 0.268709023 53.7216495"></polygon>
        <path d="M59.3018159,0.196189024 L59.3018159,15.9815854 L63.1532225,15.9815854 L63.1532225,9.40801829 L65.1706394,9.40801829 L68.7696931,15.9815854 L73.2172379,15.9815854 L68.9300512,9.4527439 C71.0619693,8.89381098 72.5977494,7.55231707 72.5977494,4.9810061 L72.5977494,4.9810061 C72.5977494,3.90786585 72.32289,2.79 71.5894629,1.9179878 L71.5894629,1.9179878 C70.7415345,0.91152439 69.2510486,0.196189024 66.7292072,0.196189024 L66.7292072,0.196189024 L59.3018159,0.196189024 Z M63.1529412,3.23698171 L66.1941176,3.23698171 C68.1423274,3.23698171 68.5778261,3.86286585 68.5778261,4.80210366 L68.5778261,4.80210366 C68.5778261,5.85301829 67.844399,6.38972561 66.2399744,6.38972561 L66.2399744,6.38972561 L63.1529412,6.38972561 L63.1529412,3.23698171 Z M45.678977,0.196189024 L45.678977,15.9815854 L57.943555,15.9815854 L57.943555,12.8288415 L49.5303836,12.8288415 L49.5303836,9.40801829 L56.0006905,9.40801829 L56.0006905,6.39054878 L49.5303836,6.39054878 L49.5303836,3.32643293 L57.5311253,3.32643293 L57.5311253,0.196189024 L45.678977,0.196189024 Z M40.1151151,0.196189024 L34.0831202,7.89914634 L34.0831202,0.196189024 L30.191202,0.196189024 L30.191202,23.9572866 L24.0191049,23.9572866 L24.0191049,18.0546037 L20.1679795,18.0546037 L20.1679795,33.8397256 L24.0191049,33.8397256 L24.0191049,27.2664329 L30.191202,27.2664329 L30.191202,44.9805183 L34.0831202,44.9805183 L34.0831202,7.89914634 L40.1151151,15.9815854 L44.7685934,15.9815854 L39.0047059,7.89914634 L44.7685934,0.196189024 L40.1151151,0.196189024 Z M19.3684399,0.196189024 L13.3392583,15.9815854 L17.4885934,15.9815854 L18.5658056,12.2567378 L24.2967775,12.2567378 L25.3514834,15.9815854 L29.5008184,15.9815854 L23.7237084,0.196189024 L19.3684399,0.196189024 Z M21.4542199,3.84064024 C22.027289,5.80801829 22.6003581,6.8904878 23.4713555,9.43957317 L23.4713555,9.43957317 L19.3453708,9.43957317 C20.1935806,7.00243902 20.8352941,5.80801829 21.4542199,3.84064024 L21.4542199,3.84064024 Z M0,0.196189024 L0,15.9815854 L6.90017903,15.9815854 C9.23859335,15.9815854 10.5912276,15.7801829 11.6228645,15.1542988 L11.6228645,15.1542988 C12.8376471,14.3939634 13.6169309,13.0524695 13.6169309,11.4873476 L13.6169309,11.4873476 C13.6169309,9.4302439 12.4938619,8.06652439 10.3158056,7.6639939 L10.3158056,7.6639939 C12.1267263,7.06006098 13.0666496,5.83051829 13.0666496,4.19817073 L13.0666496,4.19817073 C13.0666496,2.61082317 12.3562916,1.33628049 11.1642967,0.755121951 L11.1642967,0.755121951 C10.339156,0.352591463 9.07823529,0.196189024 7.17503836,0.196189024 L7.17503836,0.196189024 L0,0.196189024 Z M3.85112532,3.23698171 L6.78567775,3.23698171 C8.7341688,3.23698171 9.16966752,3.86286585 9.16966752,4.80210366 L9.16966752,4.80210366 C9.16966752,5.85301829 8.43595908,6.38972561 6.83181586,6.38972561 L6.83181586,6.38972561 L3.85112532,6.38972561 L3.85112532,3.23698171 Z M3.85112532,9.40801829 L6.92324808,9.40801829 C9.05516624,9.40801829 9.55930946,10.078628 9.55930946,11.1739939 L9.55930946,11.1739939 C9.55930946,12.2699085 8.87173913,12.8957927 6.78567775,12.8957927 L6.78567775,12.8957927 L3.85112532,12.8957927 L3.85112532,9.40801829 Z M97.2056777,22.4635061 C97.2056777,24.8109146 98.4435294,26.0854573 100.919233,27.0021951 L100.919233,27.0021951 L102.959437,27.7622561 C105.160563,28.5895427 105.779207,28.8356707 105.779207,29.6407317 L105.779207,29.6407317 C105.779207,30.3113415 105.183632,30.9372256 103.418005,30.9372256 L103.418005,30.9372256 C102.157647,30.9372256 100.460665,30.2663415 99.3375959,28.7237195 L99.3375959,28.7237195 L96.3577494,31.2503049 C98.008312,33.1732317 100.736087,34.2241463 103.326292,34.2241463 L103.326292,34.2241463 C107.521483,34.2241463 109.83711,32.0553659 109.83711,29.1934756 L109.83711,29.1934756 C109.83711,26.8232927 108.415269,25.5042988 105.435422,24.4981098 L105.435422,24.4981098 L103.120077,23.7155488 C101.515371,23.1788415 101.171304,22.7315854 101.171304,22.0384756 L101.171304,22.0384756 C101.171304,21.3231402 101.836368,20.8536585 102.844936,20.8536585 L102.844936,20.8536585 C104.335141,20.8536585 105.61913,21.3456402 107.062916,22.9777134 L107.062916,22.9777134 L109.951611,20.5853049 C108.415269,18.7965549 106.329488,17.6564634 103.463862,17.6564634 L103.463862,17.6564634 C99.8420205,17.6564634 97.2056777,19.6016159 97.2056777,22.4635061 L97.2056777,22.4635061 Z M50.8028389,25.9414024 L50.8028389,25.9872256 C50.8028389,30.7100305 54.316087,34.2005488 59.4213811,34.2005488 L59.4213811,34.2005488 C62.4192327,34.2005488 64.737954,33.0599085 66.4242455,31.6682012 L66.4242455,31.6682012 L66.4242455,24.732439 L59.3043478,24.732439 L59.3043478,27.7666463 L62.9343478,27.7666463 L62.9343478,30.0482012 C62.0211509,30.6872561 60.8499744,30.9021037 59.5384143,30.9021037 L59.5384143,30.9021037 C56.6345269,30.9021037 54.6542455,28.8620122 54.6542455,25.9414024 L54.6542455,25.9414024 L54.6542455,25.896128 C54.6542455,23.1807622 56.6578772,20.987561 59.2809974,20.987561 L59.2809974,20.987561 C61.6478261,20.987561 62.7632992,22.0178963 63.4984143,22.5658537 L63.4984143,22.5658537 L66.1755499,20.2022561 C64.3696931,18.546311 62.4355499,17.6825305 59.3980307,17.6825305 L59.3980307,17.6825305 C54.4331202,17.6825305 50.8028389,21.4013415 50.8028389,25.9414024 L50.8028389,25.9414024 Z M45.678977,18.0540549 L45.678977,27.18 C45.678977,30.0418902 44.6017647,30.8916768 42.6760614,30.8916768 L42.6760614,30.8916768 C40.9796419,30.8916768 39.764578,30.0866159 39.764578,27.2025 L39.764578,27.2025 L39.764578,18.0540549 L35.9131714,18.0540549 L35.9131714,26.978872 C35.9131714,31.763689 37.7015857,34.2005488 42.6071355,34.2005488 L42.6071355,34.2005488 C47.329821,34.2005488 49.530665,31.9425915 49.530665,27.0235976 L49.530665,27.0235976 L49.530665,18.0540549 L45.678977,18.0540549 Z M83.7192839,18.0546037 L83.7192839,33.8397256 L95.9838619,33.8397256 L95.9838619,30.6872561 L87.5704092,30.6872561 L87.5704092,27.2664329 L94.0407161,27.2664329 L94.0407161,24.2514329 L87.5704092,24.2514329 L87.5704092,21.1848476 L95.5708696,21.1848476 L95.5708696,18.0546037 L83.7192839,18.0546037 Z M78.041202,18.0546037 L78.041202,23.9572866 L71.828312,23.9572866 L71.828312,18.0546037 L67.9771867,18.0546037 L67.9771867,33.8397256 L71.828312,33.8397256 L71.828312,27.2664329 L78.041202,27.2664329 L78.041202,33.8397256 L81.8926087,33.8397256 L81.8926087,18.0546037 L78.041202,18.0546037 Z" id="path-3"></path>
    </defs>
    <g id="Page-1" stroke="none" stroke-width="1" fill="none" fill-rule="evenodd">
        <g id="Artboard" transform="translate(-80.000000, -13.000000)">
            <g id="All">
                <g id="Navbar">
                    <g id="Logo" transform="translate(80.000000, 12.399160)">
                        <g id="Group-3" transform="translate(39.000000, 0.600840)">
                            <mask id="mask-2" fill="white">
                                <use xlink:href="#path-1"></use>
                            </mask>
                            <g id="Clip-2"></g>
                            <path d="M69.2444985,45.1352598 L68.7401301,45.1352598 C68.5634759,45.1352598 68.5000474,45.2106928 68.4750098,45.3373423 C68.1467391,46.877734 67.6418143,48.5444969 66.8598068,50.0974144 C66.140115,48.5951567 65.5595211,46.8270742 65.2693632,45.349868 C65.2443256,45.1856412 65.1686564,45.1352598 65.0045211,45.1352598 L64.4111301,45.1352598 C64.2723105,45.1352598 64.2216789,45.1984454 64.2216789,45.2866825 C64.2216789,45.3373423 64.2469947,45.4637134 64.2595135,45.5140948 C64.6762504,47.281899 65.3956639,49.3400227 66.342085,51.0574454 C65.6479872,52.0675794 65.1433406,52.4717443 64.499318,52.9513423 C64.4236489,53.0020021 64.3730173,53.0649093 64.3730173,53.1280948 C64.3730173,53.1784763 64.3983331,53.2291361 64.4364459,53.2797959 L64.6887692,53.6204969 C64.7394008,53.6964866 64.8022729,53.7218165 64.8654233,53.7218165 C64.9285737,53.7218165 64.9920023,53.6964866 65.0426338,53.6586309 C66.4305511,52.7492598 67.5155135,50.981734 68.3233932,48.9611876 C68.7651677,47.8628165 69.1691075,46.6377959 69.3963932,45.5012907 C69.4214308,45.3751979 69.4342278,45.3245381 69.4342278,45.2738784 C69.4342278,45.1731155 69.3707992,45.1352598 69.2444985,45.1352598 L69.2444985,45.1352598 Z M61.4227541,45.0088887 C60.6026338,45.0088887 60.0220398,45.349868 59.5296338,45.8550742 L59.5296338,45.3623938 C59.5296338,45.1984454 59.4667617,45.1352598 59.3026263,45.1352598 L58.8358143,45.1352598 C58.6716789,45.1352598 58.6085286,45.1984454 58.6085286,45.3623938 L58.6085286,50.9692082 C58.6085286,51.1331567 58.6716789,51.1960639 58.8358143,51.1960639 L59.3654985,51.1960639 C59.5296338,51.1960639 59.5927842,51.1331567 59.5927842,50.9692082 L59.5927842,46.6503216 C60.1230248,46.0822082 60.590115,45.8300227 61.2079872,45.8300227 C62.1424459,45.8300227 62.5079947,46.5620845 62.5079947,47.357332 L62.5079947,50.9692082 C62.5079947,51.1331567 62.5711451,51.1960639 62.7352805,51.1960639 L63.2655211,51.1960639 C63.4293782,51.1960639 63.4922504,51.1331567 63.4922504,50.9692082 L63.4922504,47.3197546 C63.4922504,46.0446309 62.8615812,45.0088887 61.4227541,45.0088887 L61.4227541,45.0088887 Z M56.1033782,49.6556722 C55.6237692,50.3125794 55.055694,50.5269093 54.4500624,50.5269093 C53.5161602,50.5269093 53.2638368,49.9713216 53.2638368,49.4663938 C53.2638368,48.8350948 53.6674985,48.3802701 54.8033707,48.3802701 C55.2827015,48.3802701 55.7119571,48.4309299 56.1033782,48.5698268 L56.1033782,49.6556722 Z M54.7655361,45.0088887 C53.9198218,45.0088887 53.1500549,45.2485485 52.6326113,45.6780433 C52.5191075,45.7668371 52.5065887,45.8804041 52.5819797,46.0067753 L52.7842278,46.2970948 C52.8852128,46.4357134 52.960882,46.4485175 53.0997015,46.3471979 C53.5286789,46.0067753 54.1220699,45.8425485 54.6773481,45.8425485 C55.8758143,45.8425485 56.1033782,46.6127443 56.1033782,47.357332 L56.1033782,47.8628165 C55.6237692,47.6860639 55.1945135,47.6231567 54.6773481,47.6231567 C53.0112353,47.6231567 52.266506,48.4309299 52.266506,49.4914454 C52.266506,50.5397134 52.9736789,51.3227134 54.2856489,51.3227134 C55.1564008,51.3227134 55.7119571,50.9942598 56.1662504,50.4386722 L56.1662504,50.9692082 C56.1662504,51.1331567 56.2296789,51.1960639 56.3935361,51.1960639 L56.8603481,51.1960639 C57.0242053,51.1960639 57.0873556,51.1331567 57.0873556,50.9692082 L57.0873556,47.2059093 C57.0873556,45.905734 56.4063331,45.0088887 54.7655361,45.0088887 L54.7655361,45.0088887 Z M48.7445511,50.5269093 C48.1005286,50.5269093 47.6209195,50.2240639 47.2047391,49.7316619 L47.2047391,46.6252701 C47.6462353,46.1075381 48.1511602,45.8046928 48.8202203,45.8046928 C49.778882,45.8046928 50.4231827,46.5620845 50.4231827,48.1278062 C50.4231827,49.7316619 49.703491,50.5269093 48.7445511,50.5269093 L48.7445511,50.5269093 Z M48.9715586,45.0088887 C48.1130474,45.0088887 47.5833632,45.3877237 47.1418669,45.8425485 L47.1418669,45.3623938 C47.1418669,45.1984454 47.0787165,45.1352598 46.914303,45.1352598 L46.447491,45.1352598 C46.2833556,45.1352598 46.2202053,45.1984454 46.2202053,45.3623938 L46.2202053,53.4944041 C46.2202053,53.6586309 46.2833556,53.7218165 46.447491,53.7218165 L46.9774534,53.7218165 C47.1418669,53.7218165 47.2047391,53.6586309 47.2047391,53.4944041 L47.2047391,50.6407546 C47.5961602,51.0323938 48.1005286,51.3227134 48.8708519,51.3227134 C50.3850699,51.3227134 51.4449947,50.0848887 51.4449947,48.1024763 C51.4449947,46.1456722 50.4985737,45.0088887 48.9715586,45.0088887 L48.9715586,45.0088887 Z M42.6359346,45.0088887 C41.7654609,45.0088887 41.1467541,45.4130536 40.6293105,45.9561155 C40.3263556,45.3877237 39.7710774,45.0088887 38.9256414,45.0088887 C38.1430774,45.0088887 37.5752805,45.3373423 37.1081902,45.8425485 L37.1081902,45.3623938 C37.1081902,45.1984454 37.045318,45.1352598 36.8811827,45.1352598 L36.4140925,45.1352598 C36.2502353,45.1352598 36.1868068,45.1984454 36.1868068,45.3623938 L36.1868068,50.9692082 C36.1868068,51.1331567 36.2502353,51.1960639 36.4140925,51.1960639 L36.9443331,51.1960639 C37.1081902,51.1960639 37.1713406,51.1331567 37.1713406,50.9692082 L37.1713406,46.6127443 C37.6759872,46.0822082 38.1177617,45.8300227 38.6983556,45.8300227 C39.5944233,45.8300227 39.9480098,46.5367546 39.9480098,47.357332 L39.9480098,50.9692082 C39.9480098,51.1331567 40.010882,51.1960639 40.1750173,51.1960639 L40.7049797,51.1960639 C40.8688368,51.1960639 40.9322654,51.1331567 40.9322654,50.9692082 L40.9322654,46.5999402 C41.4243932,46.0822082 41.8661677,45.8300227 42.4339647,45.8300227 C43.3553481,45.8300227 43.7086564,46.5367546 43.7086564,47.357332 L43.7086564,50.9692082 C43.7086564,51.1331567 43.7718068,51.1960639 43.9356639,51.1960639 L44.4659045,51.1960639 C44.6300398,51.1960639 44.692912,51.1331567 44.692912,50.9692082 L44.692912,47.3197546 C44.692912,46.0446309 44.0870023,45.0088887 42.6359346,45.0088887 L42.6359346,45.0088887 Z M32.2077767,50.5397134 C30.9456038,50.5397134 30.4409571,49.4160124 30.4409571,48.1656619 C30.4409571,46.9155897 30.9456038,45.7918887 32.2077767,45.7918887 C33.4696714,45.7918887 33.9745962,46.9155897 33.9745962,48.1656619 C33.9745962,49.4160124 33.4696714,50.5397134 32.2077767,50.5397134 L32.2077767,50.5397134 Z M32.2077767,45.0088887 C30.2640248,45.0088887 29.4185887,46.5367546 29.4185887,48.1656619 C29.4185887,49.7945691 30.2261902,51.3227134 32.2077767,51.3227134 C34.1512504,51.3227134 34.9966865,49.7945691 34.9966865,48.1656619 C34.9966865,46.5367546 34.189085,45.0088887 32.2077767,45.0088887 L32.2077767,45.0088887 Z M27.0522579,45.8425485 C27.5443857,45.8425485 27.910491,45.9939711 28.2637992,46.2464351 C28.4407316,46.3725278 28.491085,46.3600021 28.5920699,46.2211052 L28.8318744,45.8678784 C28.9200624,45.7412289 28.9075436,45.6279402 28.7812429,45.5394247 C28.3144308,45.1856412 27.8473406,45.0088887 27.0647767,45.0088887 C25.222288,45.0088887 24.2758669,46.4863732 24.2758669,48.2035175 C24.2758669,50.0219814 25.2097692,51.3227134 26.9765887,51.3227134 C27.6453707,51.3227134 28.2637992,51.1206309 28.7559271,50.7167443 C28.869709,50.6282289 28.8947466,50.5143835 28.8065586,50.3880124 L28.6171075,50.0974144 C28.5289195,49.9587959 28.4407316,49.9459918 28.3144308,50.047033 C27.910491,50.3501567 27.4812353,50.4890536 27.0522579,50.4890536 C25.8660323,50.4890536 25.2982353,49.5674351 25.2982353,48.178466 C25.2982353,46.8524041 25.8913481,45.8425485 27.0522579,45.8425485 L27.0522579,45.8425485 Z M21.3350624,42.8371979 L16.8675211,42.8371979 C16.7036639,42.8371979 16.6405135,42.9003835 16.6405135,43.0646103 L16.6405135,50.9692082 C16.6405135,51.1331567 16.7036639,51.1960639 16.8675211,51.1960639 L21.3350624,51.1960639 C21.4991977,51.1960639 21.5623481,51.1331567 21.5623481,50.9692082 L21.5623481,50.5650433 C21.5623481,50.4008165 21.4991977,50.3376309 21.3350624,50.3376309 L17.6751226,50.3376309 L17.6751226,47.281899 L20.9314008,47.281899 C21.0952579,47.281899 21.1584083,47.2187134 21.1584083,47.0547649 L21.1584083,46.6503216 C21.1584083,46.4863732 21.0952579,46.4231876 20.9314008,46.4231876 L17.6751226,46.4231876 L17.6751226,43.6956309 L21.3350624,43.6956309 C21.4991977,43.6956309 21.5623481,43.6327237 21.5623481,43.4684969 L21.5623481,43.0646103 C21.5623481,42.9003835 21.4991977,42.8371979 21.3350624,42.8371979 L21.3350624,42.8371979 Z M14.8205586,46.7388371 L12.2711752,46.7388371 C12.1070398,46.7388371 12.0441677,46.8017443 12.0441677,46.9662495 L12.0441677,47.3704144 C12.0441677,47.5346412 12.1070398,47.5978268 12.2711752,47.5978268 L14.0254759,47.5978268 L14.0254759,50.0091773 C13.432085,50.3501567 12.7129496,50.4640021 12.1070398,50.4640021 C10.0753782,50.4640021 9.29281429,49.0622289 9.29281429,47.0670124 C9.29281429,45.1731155 10.087897,43.6073938 11.9557015,43.6073938 C12.8139346,43.6073938 13.5458669,43.9233216 14.0507917,44.3522598 C14.1768143,44.4535794 14.2652805,44.4407753 14.3534684,44.3146825 L14.6436263,43.9480948 C14.7448895,43.8220021 14.7320925,43.7209608 14.6185887,43.6199196 C13.924491,42.9886206 12.9652729,42.7111052 11.9935361,42.7111052 C9.38100226,42.7111052 8.23261128,44.7942804 8.23261128,47.0923423 C8.23261128,49.3778784 9.34316767,51.3227134 12.1070398,51.3227134 C13.0662579,51.3227134 14.0633105,51.0824969 14.8583932,50.6154247 C14.984694,50.5269093 15.0475662,50.4261464 15.0475662,50.2744454 L15.0475662,46.9662495 C15.0475662,46.8017443 14.984694,46.7388371 14.8205586,46.7388371 L14.8205586,46.7388371 Z M4.10530301,49.6556722 C3.62569398,50.3125794 3.0576188,50.5269093 2.45198722,50.5269093 C1.51808496,50.5269093 1.26576165,49.9713216 1.26576165,49.4663938 C1.26576165,48.8350948 1.66942331,48.3802701 2.80529549,48.3802701 C3.28490451,48.3802701 3.71388195,48.4309299 4.10530301,48.5698268 L4.10530301,49.6556722 Z M2.7674609,45.0088887 C1.92202481,45.0088887 1.1519797,45.2485485 0.63453609,45.6780433 C0.521032331,45.7668371 0.508513534,45.8804041 0.584182707,46.0067753 L0.786152632,46.2970948 C0.887137594,46.4357134 0.962806767,46.4485175 1.10162632,46.3471979 C1.53088195,46.0067753 2.12399474,45.8425485 2.67899474,45.8425485 C3.87801729,45.8425485 4.10530301,46.6127443 4.10530301,47.357332 L4.10530301,47.8628165 C3.62569398,47.6860639 3.19643835,47.6231567 2.67899474,47.6231567 C1.01316015,47.6231567 0.268709023,48.4309299 0.268709023,49.4914454 C0.268709023,50.5397134 0.975325564,51.3227134 2.28785188,51.3227134 C3.15860376,51.3227134 3.71388195,50.9942598 4.16817519,50.4386722 L4.16817519,50.9692082 C4.16817519,51.1331567 4.23132556,51.1960639 4.3954609,51.1960639 L4.86227293,51.1960639 C5.02640827,51.1960639 5.08955865,51.1331567 5.08955865,50.9692082 L5.08955865,47.2059093 C5.08955865,45.905734 4.4079797,45.0088887 2.7674609,45.0088887 L2.7674609,45.0088887 Z M94.9867617,14.7931052 C93.2869872,15.6189711 91.1295812,17.0970124 91.1295812,18.7200742 C91.1295812,19.3227031 91.4311451,19.7020948 91.9942128,19.7020948 C93.6555962,19.7020948 94.6760173,17.0577649 94.9867617,14.7931052 L94.9867617,14.7931052 Z M95.4341,7.7154866 C95.4341,7.53094021 95.3269947,7.45300206 95.1714835,7.45300206 C94.3750098,7.45300206 93.2477617,9.53339381 93.2477617,10.7776206 C94.4915737,10.0967753 95.4341,8.5513732 95.4341,7.7154866 L95.4341,7.7154866 Z M102.12804,7.87108454 C102.12804,7.68625979 102.089092,7.45300206 101.856243,7.45300206 C101.292341,7.45300206 100.388762,8.66800206 100.388762,10.2139608 C101.51601,9.23221856 102.12804,8.39633196 102.12804,7.87108454 L102.12804,7.87108454 Z M104.916671,17.3976309 C104.916671,19.099466 103.449747,20.8781258 101.292341,20.8781258 C98.688709,20.8781258 97.3672805,18.6811052 97.3672805,16.717899 C97.3672805,13.9566619 99.2520549,12.7903732 100.048807,12.3722907 C99.8938519,12.2553835 99.7770098,12.1098062 99.6701827,11.9149608 C98.7565887,12.5565588 97.9309045,13.1305175 96.1916263,14.1122598 C96.1140098,15.3177959 96.0071827,16.6396825 95.6961602,17.5537856 C95.0551977,19.478301 93.733491,20.8781258 91.9942128,20.8781258 C90.5275662,20.8781258 89.8084308,19.8187237 89.8084308,18.6811052 C89.8084308,17.8546825 90.2944383,16.7952804 91.1685286,15.9980845 C92.2665662,15.0163423 93.4714308,14.4131567 95.1330925,13.538301 C95.1714835,13.3150639 95.210709,13.0912701 95.2493782,12.8193216 C94.8315286,13.1984351 94.2292353,13.354033 93.733491,13.354033 C92.9467541,13.354033 92.2957767,12.6731876 92.1500023,11.9539299 C91.090912,11.8762701 90.2944383,11.1180433 90.2549346,9.91250722 C90.2549346,9.04739381 90.5954459,8.28916701 91.1685286,8.28916701 C91.3919195,8.28916701 91.4700925,8.47399175 91.4700925,8.62931134 C91.4700925,8.77488866 91.2753556,9.27090928 91.2753556,9.75718763 C91.2753556,10.2532082 91.5087617,10.8942495 92.1110549,10.8942495 C92.1110549,8.9310433 93.5490474,6.3936 95.2493782,6.3936 C96.3763481,6.3936 96.5318594,7.2294866 96.5318594,7.6086 C96.5318594,9.38781649 94.7536338,11.351301 93.3159195,11.837301 C93.3545887,11.992899 93.5103782,12.4112598 93.966897,12.4112598 C94.5305211,12.4112598 95.210709,11.8762701 95.5509421,11.4581876 C95.6961602,10.670734 96.2697992,9.53339381 97.0273256,9.53339381 C97.3283331,9.53339381 97.4741075,9.75718763 97.4741075,10.0294144 C97.4741075,10.5927959 96.8720925,11.3120536 96.4150173,11.798332 C96.3474158,12.1777237 96.3081902,12.5955278 96.3081902,12.9356722 C97.6296188,12.1387546 98.310085,11.7301361 99.2915586,11.0108784 C99.2136639,10.7483938 99.2136639,10.4374763 99.2136639,10.136301 C99.2136639,8.3668268 100.388762,6.3936 101.933859,6.3936 C102.80795,6.3936 103.25501,7.00597113 103.25501,7.68625979 C103.25501,8.96973402 102.157529,10.0967753 100.612431,11.2736412 C100.728995,11.5750948 100.913717,11.837301 101.215002,11.992899 C101.253671,11.9149608 101.749416,11.837301 102.157529,11.837301 C102.613769,11.837301 103.25501,11.9539299 103.25501,12.4112598 C103.25501,12.9356722 102.536153,13.0528577 101.973085,13.0528577 C101.671521,13.0912701 101.176055,12.9749196 101.176055,12.9749196 C100.350092,13.1984351 98.7565887,14.1509505 98.7565887,16.5617443 C98.7565887,18.1951052 99.7770098,19.7020948 101.370235,19.7020948 C102.5751,19.7020948 103.556295,18.7980124 103.595521,17.3976309 C103.595521,16.4941052 103.216062,15.5415897 102.312483,15.5415897 C101.856243,15.5415897 101.447852,15.8814557 101.447852,16.3771979 C101.408905,17.1357031 101.973085,17.2130845 101.973085,17.6993629 C101.973085,18.0397856 101.710747,18.1951052 101.447852,18.1951052 C100.690326,18.1951052 100.116965,17.4368784 100.116965,16.4941052 C100.116965,15.3564866 101.107619,14.4131567 102.390378,14.4131567 C104.051762,14.4131567 104.916671,15.8522289 104.916671,17.3976309 L104.916671,17.3976309 Z M109.492709,13.7718371 C109.492709,9.45573402 107.29719,4.99377526 102.5751,3.56444536 C101.593626,3.26299175 100.767942,3.06870309 99.8156789,3.06870309 C97.6296188,3.06870309 97.5517241,4.31320825 96.5318594,4.31320825 C95.9685135,4.31320825 95.5893331,3.90486804 95.5893331,3.40912577 C95.5893331,2.54373402 96.6097541,1.86316701 98.231912,1.86316701 C99.7477992,1.86316701 100.913717,2.24228041 101.137386,2.34944536 L101.176055,2.24228041 C100.767942,2.08696082 99.3299496,1.59121856 97.3283331,1.59121856 C92.9759647,1.59121856 88.5551602,3.82720825 87.1269045,8.51296082 C86.8256188,9.49470309 86.6314383,10.3303113 86.6314383,11.2736412 C86.6314383,13.4706619 87.8752504,13.5775485 87.8752504,14.5985381 C87.8752504,15.1329711 87.4665812,15.5118062 86.9716714,15.5118062 C86.1067617,15.5118062 85.4265737,14.5206 85.4265737,12.8580124 C85.4265737,11.351301 85.8054759,10.1749918 85.8733556,9.95147629 L85.7668068,9.91250722 C85.6502429,10.3692804 85.1544985,11.7693835 85.1544985,13.7718371 C85.1544985,18.1564144 87.3895211,22.5796825 92.0721075,24.0181979 C93.0535812,24.3196515 93.8890023,24.5044763 94.8315286,24.5044763 C97.0273256,24.5044763 97.0952053,23.2212804 98.1153481,23.2212804 C98.6497617,23.2212804 99.0678895,23.6390845 99.0678895,24.164332 C99.0678895,24.9999402 98.0766789,25.6805072 96.4150173,25.6805072 C94.9094233,25.6805072 93.6951,25.3013938 93.5103782,25.223734 L93.4714308,25.3406412 C93.8890023,25.5249093 95.3269947,25.9429918 97.3283331,25.9429918 C101.671521,25.9429918 106.131273,23.7459711 107.53004,19.0215278 C107.831326,18.0787546 108.016047,17.2130845 108.016047,16.2995381 C108.016047,14.0732907 106.772235,13.9956309 106.772235,12.9749196 C106.772235,12.4112598 107.151416,12.031868 107.676092,12.031868 C108.550183,12.031868 109.230371,13.0528577 109.230371,14.7146103 C109.230371,16.1926515 108.851747,17.3592186 108.773852,17.6214247 L108.890416,17.6606722 C109.03619,17.2130845 109.492709,15.8138165 109.492709,13.7718371 L109.492709,13.7718371 Z M110.31895,13.7718371 C110.31895,20.9563423 104.508559,26.7696928 97.3283331,26.7696928 C90.1483857,26.7696928 84.3288143,20.9563423 84.3288143,13.7718371 C84.3288143,6.58788866 90.1483857,0.764795876 97.3283331,0.764795876 C104.508559,0.764795876 110.31895,6.62685773 110.31895,13.7718371 L110.31895,13.7718371 Z M110.969371,13.7718371 C110.969371,6.24746598 104.848514,0.123197938 97.3283331,0.123197938 C89.8084308,0.123197938 83.6875737,6.24746598 83.6875737,13.7718371 C83.6875737,21.3251567 89.8084308,27.4207546 97.3283331,27.4207546 C104.848514,27.4207546 110.969371,21.3251567 110.969371,13.7718371 L110.969371,13.7718371 Z" id="Fill-1" fill="#FFFFFF" mask="url(#mask-2)"></path>
                        </g>
                        <g id="Group-6" transform="translate(0.000000, 6.600840)">
                            <mask id="mask-4" fill="white">
                                <use xlink:href="#path-3"></use>
                            </mask>
                            <g id="Clip-5"></g>
                            <path d="M59.3018159,0.196189024 L59.3018159,15.9815854 L63.1532225,15.9815854 L63.1532225,9.40801829 L65.1706394,9.40801829 L68.7696931,15.9815854 L73.2172379,15.9815854 L68.9300512,9.4527439 C71.0619693,8.89381098 72.5977494,7.55231707 72.5977494,4.9810061 L72.5977494,4.9810061 C72.5977494,3.90786585 72.32289,2.79 71.5894629,1.9179878 L71.5894629,1.9179878 C70.7415345,0.91152439 69.2510486,0.196189024 66.7292072,0.196189024 L66.7292072,0.196189024 L59.3018159,0.196189024 Z M63.1529412,3.23698171 L66.1941176,3.23698171 C68.1423274,3.23698171 68.5778261,3.86286585 68.5778261,4.80210366 L68.5778261,4.80210366 C68.5778261,5.85301829 67.844399,6.38972561 66.2399744,6.38972561 L66.2399744,6.38972561 L63.1529412,6.38972561 L63.1529412,3.23698171 Z M45.678977,0.196189024 L45.678977,15.9815854 L57.943555,15.9815854 L57.943555,12.8288415 L49.5303836,12.8288415 L49.5303836,9.40801829 L56.0006905,9.40801829 L56.0006905,6.39054878 L49.5303836,6.39054878 L49.5303836,3.32643293 L57.5311253,3.32643293 L57.5311253,0.196189024 L45.678977,0.196189024 Z M40.1151151,0.196189024 L34.0831202,7.89914634 L34.0831202,0.196189024 L30.191202,0.196189024 L30.191202,23.9572866 L24.0191049,23.9572866 L24.0191049,18.0546037 L20.1679795,18.0546037 L20.1679795,33.8397256 L24.0191049,33.8397256 L24.0191049,27.2664329 L30.191202,27.2664329 L30.191202,44.9805183 L34.0831202,44.9805183 L34.0831202,7.89914634 L40.1151151,15.9815854 L44.7685934,15.9815854 L39.0047059,7.89914634 L44.7685934,0.196189024 L40.1151151,0.196189024 Z M19.3684399,0.196189024 L13.3392583,15.9815854 L17.4885934,15.9815854 L18.5658056,12.2567378 L24.2967775,12.2567378 L25.3514834,15.9815854 L29.5008184,15.9815854 L23.7237084,0.196189024 L19.3684399,0.196189024 Z M21.4542199,3.84064024 C22.027289,5.80801829 22.6003581,6.8904878 23.4713555,9.43957317 L23.4713555,9.43957317 L19.3453708,9.43957317 C20.1935806,7.00243902 20.8352941,5.80801829 21.4542199,3.84064024 L21.4542199,3.84064024 Z M0,0.196189024 L0,15.9815854 L6.90017903,15.9815854 C9.23859335,15.9815854 10.5912276,15.7801829 11.6228645,15.1542988 L11.6228645,15.1542988 C12.8376471,14.3939634 13.6169309,13.0524695 13.6169309,11.4873476 L13.6169309,11.4873476 C13.6169309,9.4302439 12.4938619,8.06652439 10.3158056,7.6639939 L10.3158056,7.6639939 C12.1267263,7.06006098 13.0666496,5.83051829 13.0666496,4.19817073 L13.0666496,4.19817073 C13.0666496,2.61082317 12.3562916,1.33628049 11.1642967,0.755121951 L11.1642967,0.755121951 C10.339156,0.352591463 9.07823529,0.196189024 7.17503836,0.196189024 L7.17503836,0.196189024 L0,0.196189024 Z M3.85112532,3.23698171 L6.78567775,3.23698171 C8.7341688,3.23698171 9.16966752,3.86286585 9.16966752,4.80210366 L9.16966752,4.80210366 C9.16966752,5.85301829 8.43595908,6.38972561 6.83181586,6.38972561 L6.83181586,6.38972561 L3.85112532,6.38972561 L3.85112532,3.23698171 Z M3.85112532,9.40801829 L6.92324808,9.40801829 C9.05516624,9.40801829 9.55930946,10.078628 9.55930946,11.1739939 L9.55930946,11.1739939 C9.55930946,12.2699085 8.87173913,12.8957927 6.78567775,12.8957927 L6.78567775,12.8957927 L3.85112532,12.8957927 L3.85112532,9.40801829 Z M97.2056777,22.4635061 C97.2056777,24.8109146 98.4435294,26.0854573 100.919233,27.0021951 L100.919233,27.0021951 L102.959437,27.7622561 C105.160563,28.5895427 105.779207,28.8356707 105.779207,29.6407317 L105.779207,29.6407317 C105.779207,30.3113415 105.183632,30.9372256 103.418005,30.9372256 L103.418005,30.9372256 C102.157647,30.9372256 100.460665,30.2663415 99.3375959,28.7237195 L99.3375959,28.7237195 L96.3577494,31.2503049 C98.008312,33.1732317 100.736087,34.2241463 103.326292,34.2241463 L103.326292,34.2241463 C107.521483,34.2241463 109.83711,32.0553659 109.83711,29.1934756 L109.83711,29.1934756 C109.83711,26.8232927 108.415269,25.5042988 105.435422,24.4981098 L105.435422,24.4981098 L103.120077,23.7155488 C101.515371,23.1788415 101.171304,22.7315854 101.171304,22.0384756 L101.171304,22.0384756 C101.171304,21.3231402 101.836368,20.8536585 102.844936,20.8536585 L102.844936,20.8536585 C104.335141,20.8536585 105.61913,21.3456402 107.062916,22.9777134 L107.062916,22.9777134 L109.951611,20.5853049 C108.415269,18.7965549 106.329488,17.6564634 103.463862,17.6564634 L103.463862,17.6564634 C99.8420205,17.6564634 97.2056777,19.6016159 97.2056777,22.4635061 L97.2056777,22.4635061 Z M50.8028389,25.9414024 L50.8028389,25.9872256 C50.8028389,30.7100305 54.316087,34.2005488 59.4213811,34.2005488 L59.4213811,34.2005488 C62.4192327,34.2005488 64.737954,33.0599085 66.4242455,31.6682012 L66.4242455,31.6682012 L66.4242455,24.732439 L59.3043478,24.732439 L59.3043478,27.7666463 L62.9343478,27.7666463 L62.9343478,30.0482012 C62.0211509,30.6872561 60.8499744,30.9021037 59.5384143,30.9021037 L59.5384143,30.9021037 C56.6345269,30.9021037 54.6542455,28.8620122 54.6542455,25.9414024 L54.6542455,25.9414024 L54.6542455,25.896128 C54.6542455,23.1807622 56.6578772,20.987561 59.2809974,20.987561 L59.2809974,20.987561 C61.6478261,20.987561 62.7632992,22.0178963 63.4984143,22.5658537 L63.4984143,22.5658537 L66.1755499,20.2022561 C64.3696931,18.546311 62.4355499,17.6825305 59.3980307,17.6825305 L59.3980307,17.6825305 C54.4331202,17.6825305 50.8028389,21.4013415 50.8028389,25.9414024 L50.8028389,25.9414024 Z M45.678977,18.0540549 L45.678977,27.18 C45.678977,30.0418902 44.6017647,30.8916768 42.6760614,30.8916768 L42.6760614,30.8916768 C40.9796419,30.8916768 39.764578,30.0866159 39.764578,27.2025 L39.764578,27.2025 L39.764578,18.0540549 L35.9131714,18.0540549 L35.9131714,26.978872 C35.9131714,31.763689 37.7015857,34.2005488 42.6071355,34.2005488 L42.6071355,34.2005488 C47.329821,34.2005488 49.530665,31.9425915 49.530665,27.0235976 L49.530665,27.0235976 L49.530665,18.0540549 L45.678977,18.0540549 Z M83.7192839,18.0546037 L83.7192839,33.8397256 L95.9838619,33.8397256 L95.9838619,30.6872561 L87.5704092,30.6872561 L87.5704092,27.2664329 L94.0407161,27.2664329 L94.0407161,24.2514329 L87.5704092,24.2514329 L87.5704092,21.1848476 L95.5708696,21.1848476 L95.5708696,18.0546037 L83.7192839,18.0546037 Z M78.041202,18.0546037 L78.041202,23.9572866 L71.828312,23.9572866 L71.828312,18.0546037 L67.9771867,18.0546037 L67.9771867,33.8397256 L71.828312,33.8397256 L71.828312,27.2664329 L78.041202,27.2664329 L78.041202,33.8397256 L81.8926087,33.8397256 L81.8926087,18.0546037 L78.041202,18.0546037 Z" id="Fill-4" fill="#FFFFFF" mask="url(#mask-4)"></path>
                        </g>
                    </g>
                </g>
            </g>
        </g>
    </g>
</svg>